<?xml version="1.0" encoding="UTF-8" standalone="no"?>
<!DOCTYPE svg PUBLIC "-//W3C//DTD SVG 1.1//EN" "http://www.w3.org/Graphics/SVG/1.1/DTD/svg11.dtd">
<svg width="100%" height="100%" viewBox="0 0 481 106" version="1.1" xmlns="http://www.w3.org/2000/svg" xmlns:xlink="http://www.w3.org/1999/xlink" xml:space="preserve" xmlns:serif="http://www.serif.com/" style="fill-rule:evenodd;clip-rule:evenodd;stroke-linejoin:round;stroke-miterlimit:2;">
    <g transform="matrix(2,0,0,2,0,0)">
        <g transform="matrix(0.712481,0,0,0.712481,-1619.28,-124.787)">
            <g transform="matrix(100,0,0,100,2264.24,247.144)">
                <path d="M0.635,-0.155L0.24,-0.155L0.24,-0.7L0.085,-0.7L0.085,-0L0.635,-0L0.635,-0.155Z" style="fill-rule:nonzero;"/>
            </g>
            <g transform="matrix(100,0,0,100,2331.74,247.144)">
                <path d="M0.808,-0L0.538,-0.7L0.29,-0.7L0.02,-0L0.19,-0L0.252,-0.16L0.575,-0.16L0.638,-0L0.808,-0ZM0.414,-0.586L0.516,-0.315L0.311,-0.315L0.414,-0.586Z" style="fill-rule:nonzero;"/>
            </g>
            <g transform="matrix(100,0,0,100,2414.54,247.144)">
                <rect x="0.085" y="-0.7" width="0.155" height="0.7" style="fill-rule:nonzero;"/>
            </g>
            <g transform="matrix(100,0,0,100,2447.04,247.144)">
                <path d="M0.422,0.02C0.63,0.02 0.794,-0.129 0.794,-0.35C0.794,-0.571 0.63,-0.72 0.422,-0.72C0.214,-0.72 0.05,-0.571 0.05,-0.35C0.05,-0.129 0.209,0.02 0.422,0.02ZM0.422,-0.135C0.297,-0.135 0.205,-0.222 0.205,-0.35C0.205,-0.473 0.297,-0.565 0.422,-0.565C0.547,-0.565 0.639,-0.478 0.639,-0.35C0.639,-0.227 0.547,-0.135 0.422,-0.135Z" style="fill-rule:nonzero;"/>
            </g>
            <g transform="matrix(100,0,0,100,2531.44,247.144)">
                <path d="M0.782,-0L0.782,-0.7L0.627,-0.7L0.627,-0.136L0.337,-0.7L0.085,-0.7L0.085,-0L0.24,-0L0.24,-0.558L0.527,-0L0.782,-0Z" style="fill-rule:nonzero;"/>
            </g>
        </g>
    </g>
</svg>
